# xmcd
#
# Track frame offsets:
#	150
#	113365
#	190242
#
# Disc length: 4009 seconds
# Revision: 0
# Processed by: cddbd v1.5.2PL0 Copyright (c) Steve Scherf et al.
# Submitted via: dBpowerAMP V12.0
#
DISCID=1a0fa703
DTITLE=Ingeborg Bachmann - SPUREN 12 CD2
DYEAR=2006
DGENRE=Hörbuch
TTITLE0=05
TTITLE1=06
TTITLE2=07
EXTD=
EXTT0=
EXTT1=
EXTT2=
PLAYORDER=
